<svg id="Layer_1" enable-background="new 0 0 510 510" height="512" viewBox="0 0 510 510" width="512" xmlns="http://www.w3.org/2000/svg"><g><path d="m105 0v30h183.64l146.36 146.36v273.64h30v-450z"/><path d="m285 180h111.213l-111.213-111.213z"/><path d="m255 60h-210v450h360v-300h-150zm-150 60h30v30h-30zm0 60h30v30h-30zm90 270h-90v-30h90zm0-60h-90v-30h90zm0-60h-90v-30h90zm0-60h-90v-30h90zm30-60h-60v-30h60zm0-60h-60v-30h60zm42.781 299.878-38.388-38.388 21.213-21.213 17.175 17.175 47.331-47.331 21.213 21.213zm0-162.426 47.331-47.331 21.213 21.214-68.544 68.543-38.388-38.388 21.213-21.213z"/></g></svg>