<svg xmlns="http://www.w3.org/2000/svg" width="25.707" height="18.317" viewBox="0 0 25.707 18.317">
  <g id="email" transform="translate(0 -33.085)">
    <path id="Path_37" data-name="Path 37" d="M167.755,48.893c0-.029.02-.058.019-.087l-7.845,7.559,7.836,7.318c0-.052-.01-.1-.01-.158Z" transform="translate(-142.067 -13.965)"   />
    <path id="Path_38" data-name="Path 38" d="M26.445,126.9l-3.2,3.081a.838.838,0,0,1-1.152.009L18.9,127.015l-7.887,7.6a1.817,1.817,0,0,0,.613.122H33.7a1.816,1.816,0,0,0,.881-.243Z" transform="translate(-9.78 -83.338)"   />
    <path id="Path_39" data-name="Path 39" d="M18.317,44.887,30.29,33.354a1.814,1.814,0,0,0-.925-.269H7.288a1.819,1.819,0,0,0-1.158.432Z" transform="translate(-5.445)"   />
    <path id="Path_40" data-name="Path 40" d="M0,52.1V66.45a1.822,1.822,0,0,0,.079.475l7.789-7.5Z" transform="translate(0 -16.891)"   />
  </g>
</svg>
