<svg xmlns="http://www.w3.org/2000/svg" width="21.207" height="21.252" viewBox="0 0 21.207 21.252">
  <g id="phone" transform="translate(-0.539)">
    <g id="Group_20" data-name="Group 20" transform="translate(0.539 0)">
      <path id="Path_36" data-name="Path 36" d="M21.19,15.6l-2.966-2.966a1.973,1.973,0,0,0-3.283.741,2.018,2.018,0,0,1-2.33,1.271A9.145,9.145,0,0,1,7.1,9.136a1.92,1.92,0,0,1,1.271-2.33,1.973,1.973,0,0,0,.741-3.283L6.15.556a2.115,2.115,0,0,0-2.86,0L1.277,2.569c-2.012,2.118.212,7.732,5.19,12.71s10.592,7.308,12.71,5.19l2.012-2.012A2.115,2.115,0,0,0,21.19,15.6Z" transform="translate(-0.539 0)"/>
    </g>
  </g>
</svg>
