<svg xmlns="http://www.w3.org/2000/svg" width="21.295" height="21.252" viewBox="0 0 21.295 21.252">
  <g id="www" transform="translate(0 -0.316)">
    <path id="Path_41" data-name="Path 41" d="M231.816,348.821c1.628-.231,3.056-1.931,3.954-4.441a19.326,19.326,0,0,0-3.954-.465Zm0,0" transform="translate(-220.788 -327.252)"  />
    <path id="Path_42" data-name="Path 42" d="M279.83,361.469c.1-.028.192-.056.287-.087s.159-.054.239-.081.187-.066.28-.1.158-.062.236-.094l.271-.114c.078-.034.156-.07.234-.107s.175-.084.262-.128l.228-.119q.128-.069.254-.14c.076-.043.15-.086.224-.131l.246-.152c.073-.046.146-.094.218-.142s.159-.11.238-.167l.21-.152c.076-.059.154-.119.231-.18s.135-.108.2-.163.149-.129.223-.194.13-.114.193-.173.143-.138.214-.208.123-.12.183-.182l.033-.036a12.79,12.79,0,0,0-2.608-1,9.444,9.444,0,0,1-2.432,3.95l.093-.022C279.67,361.517,279.75,361.492,279.83,361.469Zm0,0" transform="translate(-266.2 -340.299)"  />
    <path id="Path_43" data-name="Path 43" d="M340.89,231.684h-4.563a19.736,19.736,0,0,1-.768,5.265,13.237,13.237,0,0,1,2.888,1.149,10.633,10.633,0,0,0,2.443-6.415Zm0,0" transform="translate(-319.596 -220.361)"  />
    <path id="Path_44" data-name="Path 44" d="M231.816,114.02h4.942a19.04,19.04,0,0,0-.749-5.078,20.047,20.047,0,0,1-4.193.5Zm0,0" transform="translate(-220.788 -103.458)"  />
    <path id="Path_45" data-name="Path 45" d="M231.816.316V5.223a19.342,19.342,0,0,0,3.954-.465c-.9-2.51-2.326-4.21-3.954-4.441Zm0,0" transform="translate(-220.788)"  />
    <path id="Path_46" data-name="Path 46" d="M231.816,236.261a20.058,20.058,0,0,1,4.193.5,19.039,19.039,0,0,0,.749-5.078h-4.942Zm0,0" transform="translate(-220.788 -220.361)"  />
    <path id="Path_47" data-name="Path 47" d="M338.447,80.844a13.235,13.235,0,0,1-2.888,1.149,19.736,19.736,0,0,1,.768,5.265h4.563a10.636,10.636,0,0,0-2.443-6.415Zm0,0" transform="translate(-319.595 -76.697)"  />
    <path id="Path_48" data-name="Path 48" d="M284.5,9.742l-.033-.035c-.06-.062-.123-.122-.184-.182s-.141-.14-.214-.208-.128-.114-.193-.173-.148-.131-.223-.195-.133-.109-.2-.162-.154-.123-.233-.182-.138-.1-.209-.152-.159-.114-.24-.169-.143-.095-.216-.141-.164-.1-.248-.155-.148-.088-.222-.13-.17-.1-.256-.142-.152-.08-.228-.118-.176-.087-.266-.129-.154-.072-.232-.106-.181-.076-.272-.114-.156-.064-.236-.094-.186-.068-.28-.1-.158-.056-.239-.082-.19-.059-.288-.087c-.079-.023-.159-.047-.239-.068l-.093-.023a9.444,9.444,0,0,1,2.432,3.95,12.772,12.772,0,0,0,2.611-1Zm0,0" transform="translate(-266.163 -6.172)"  />
    <path id="Path_49" data-name="Path 49" d="M0,87.258H4.563a19.744,19.744,0,0,1,.768-5.265,13.22,13.22,0,0,1-2.888-1.149A10.633,10.633,0,0,0,0,87.258Zm0,0" transform="translate(0 -76.697)"  />
    <path id="Path_50" data-name="Path 50" d="M136.649,348.82v-4.906a19.339,19.339,0,0,0-3.954.465C133.593,346.889,135.021,348.589,136.649,348.82Zm0,0" transform="translate(-126.382 -327.252)"  />
    <path id="Path_51" data-name="Path 51" d="M116.863,231.684h-4.942a19.033,19.033,0,0,0,.749,5.078,20.03,20.03,0,0,1,4.193-.5Zm0,0" transform="translate(-106.597 -220.361)"  />
    <path id="Path_52" data-name="Path 52" d="M136.649.316c-1.628.231-3.056,1.931-3.954,4.441a19.316,19.316,0,0,0,3.954.465Zm0,0" transform="translate(-126.382)"  />
    <path id="Path_53" data-name="Path 53" d="M116.864,109.441a20.046,20.046,0,0,1-4.193-.5,19.031,19.031,0,0,0-.749,5.078h4.942Zm0,0" transform="translate(-106.597 -103.457)"  />
    <path id="Path_54" data-name="Path 54" d="M67.23,6.789l-.093.022c-.081.022-.16.046-.24.069-.1.028-.19.056-.286.086-.081.026-.16.054-.24.082s-.186.066-.279.1-.158.062-.237.094l-.271.114c-.078.034-.156.07-.234.107s-.175.084-.262.127l-.228.119q-.128.069-.254.14t-.224.131c-.083.05-.164.1-.246.152s-.146.094-.218.143-.159.11-.238.167L63.47,8.6c-.078.059-.152.119-.231.18s-.136.108-.2.164-.148.128-.222.193-.131.114-.194.174-.143.138-.213.207-.124.12-.184.183l-.033.036a12.777,12.777,0,0,0,2.608,1A9.441,9.441,0,0,1,67.23,6.789Zm0,0" transform="translate(-59.233 -6.165)"  />
    <path id="Path_55" data-name="Path 55" d="M62.444,358.783c.071.07.141.14.214.208s.128.114.193.173.148.131.223.195.133.109.2.162.152.123.233.182.138.1.208.152.16.114.241.169.143.095.216.141.164.1.248.155.148.088.222.13.17.1.256.142.152.08.228.118.176.087.266.129.153.071.232.106.181.076.272.114.156.064.236.094.186.069.28.1.158.056.239.081.19.059.288.087c.079.023.159.047.239.068l.093.023a9.446,9.446,0,0,1-2.432-3.95,12.775,12.775,0,0,0-2.608,1l.033.035c.057.062.119.122.181.182Zm0,0" transform="translate(-59.27 -340.251)"  />
    <path id="Path_56" data-name="Path 56" d="M2.443,238.1a13.236,13.236,0,0,1,2.888-1.149,19.744,19.744,0,0,1-.768-5.265H0A10.635,10.635,0,0,0,2.443,238.1Zm0,0" transform="translate(0 -220.36)"  />
  </g>
</svg>
