<svg xmlns="http://www.w3.org/2000/svg" width="217.907" height="45.526" viewBox="0 0 217.907 45.526">
  <g id="progeosurvey-logo" transform="translate(-312.93 -291)">
    <path id="path14" d="M47.976-163.025v2.834h5.688q1.621,0,1.621-.576v-1.681q0-.577-1.621-.576Zm-1.827,7.2v-8.452h7.515q3.448,0,3.449,1.825v1.681q0,1.825-3.449,1.825H47.976v3.121Z" transform="translate(305.762 474.469)" fill="#fecf45" fill-rule="evenodd"/>
    <path id="path16" d="M60.054-163.025v2.185h5.825q1.621,0,1.621-.576v-1.033q0-.577-1.621-.576Zm-1.827,7.2v-8.452h7.653q3.449,0,3.449,1.825v1.033q0,1.524-2.391,1.777l2.295,3.818H67.28l-2.267-3.77h-4.96v3.77Z" transform="translate(305.762 474.469)" fill="#fecf45" fill-rule="evenodd"/>
    <path id="path18" d="M79.632-157.07q1.62,0,1.621-.552v-4.826q0-.577-1.621-.576H74.081q-1.621,0-1.621.576v4.8q0,.575,1.621.576Zm-9-5.378q0-1.824,3.448-1.825h5.551q3.448,0,3.448,1.825v4.826q0,1.8-3.448,1.8H74.081q-3.449,0-3.448-1.825Z" transform="translate(305.762 474.469)" fill="#fecf45" fill-rule="evenodd"/>
    <path id="path20" d="M100.927-160.432h1.827v2.809q0,1.8-3.448,1.8H95.033q-3.449,0-3.448-1.825v-4.8q0-1.824,3.448-1.825H102.6v1.248h-7.57q-1.621,0-1.621.576v4.8q0,.575,1.621.576h4.273q1.621,0,1.621-.552Z" transform="translate(305.762 474.469)" fill="#fecf45" fill-rule="evenodd"/>
    <path id="path22" d="M106.272-159.664v2.593h8.12v1.249h-9.947v-8.452h9.947v1.248h-8.12v2.113h7.707v1.249Z" transform="translate(305.762 474.469)" fill="#fecf45" fill-rule="evenodd"/>
    <path id="path24" d="M124.6-157.07q1.621,0,1.621-.552v-4.826q0-.577-1.621-.576h-5.551q-1.621,0-1.621.576v4.8q0,.575,1.621.576Zm-9-5.378q0-1.824,3.448-1.825H124.6q3.448,0,3.448,1.825v4.826q0,1.8-3.448,1.8h-5.551q-3.449,0-3.448-1.825Z" transform="translate(305.762 474.469)" fill="#fecf45" fill-rule="evenodd"/>
    <path id="path26" d="M145.042-160.948q3.449,0,3.448,1.825v1.5q0,1.8-3.448,1.8h-8.257v-1.249h8.257q1.622,0,1.621-.552v-1.5q0-.576-1.621-.576H139.9q-3.448,0-3.449-1.825v-.924q0-1.824,3.448-1.825h7.982v1.248H139.9q-1.621,0-1.621.576v.924q0,.577,1.621.576Z" transform="translate(305.762 474.469)" fill-rule="evenodd"/>
    <path id="path28" d="M158.7-157.07q1.621,0,1.621-.912v-6.291h1.827v6.291q0,2.161-3.448,2.161H153.56q-3.448,0-3.448-2.185v-6.267h1.827v6.267q0,.936,1.621.936Z" transform="translate(305.762 474.469)" fill-rule="evenodd"/>
    <path id="path30" d="M165.748-163.025v2.185h5.825q1.621,0,1.621-.576v-1.033q0-.577-1.621-.576Zm-1.827,7.2v-8.452h7.653q3.449,0,3.449,1.825v1.033q0,1.524-2.391,1.777l2.294,3.818h-1.951l-2.267-3.77h-4.96v3.77Z" transform="translate(305.762 474.469)" fill-rule="evenodd"/>
    <path id="path32" d="M183.581-155.821h-1.333l-6.429-8.452h1.992l5.139,6.9,5.083-6.9h1.937Z" transform="translate(305.762 474.469)" fill-rule="evenodd"/>
    <path id="path34" d="M192.689-159.664v2.593h8.12v1.249h-9.947v-8.452h9.947v1.248h-8.12v2.113H200.4v1.249Z" transform="translate(305.762 474.469)" fill-rule="evenodd"/>
    <path id="path36" d="M207.774-159.254l-6.21-5.018H203.9l4.781,3.866,4.781-3.866h2.308l-6.169,5.018v3.434h-1.827Z" transform="translate(305.762 474.469)" fill-rule="evenodd"/>
    <path id="path38" d="M10.357-172.792c.349-.516.831-1.193,1.217-1.682l.6-.68.03-.033a13.521,13.521,0,0,0-1.606,2.123C10.5-172.961,10.445-172.894,10.357-172.792Zm-.583,1.048.417-.771.029-.033c.076-.087.131-.149.212-.236l-.405.757a11.9,11.9,0,0,0-1.232,4.749,3.208,3.208,0,0,1-.009.681c-.035.132-.164.183-.244.277A11.4,11.4,0,0,1,9.774-171.744Zm1.915,13.068-.609-.749.01-.011.068-.075.581.78c.27.314.619.741.9,1.043-.287-.3-.686-.674-.953-.988" transform="translate(305.762 474.469)" fill="#fecf45" fill-rule="evenodd"/>
    <path id="path40" d="M18.854-180.3a28.466,28.466,0,0,1,5.661-2.264l-.555.159-.638.2-.016.005c-.193.063-.375.125-.543.183-.658.237-.663.239-1.084.4l-.51.209-.005,0h0c-.257.108-.461.2-.667.292l-.006,0-.016.008c-.29.134-.457.211-.587.273h0l-.007,0-.007,0c-.144.07-.315.156-.48.24h0l-.009.005c-.163.085-.356.184-.515.268h0l-.009.005h0Zm-.007,0h.007m-.008,0h0" transform="translate(305.762 474.469)" fill="#e42325" fill-rule="evenodd"/>
    <path id="path42" d="M17.673-176.149l.243-.028c.383-.536.905-1.243,1.318-1.757a17.668,17.668,0,0,1,2.708-2.608l-.235.177A19.71,19.71,0,0,0,17.673-176.149ZM14.831-169.1a23.076,23.076,0,0,1,1.433-4.1,26.167,26.167,0,0,1,1.653-2.973l-.243.028a28.005,28.005,0,0,0-1.782,2.984,22.728,22.728,0,0,0-1.545,4.116Zm-.279,1.293.2-.964-.491.048-.22.969a19.734,19.734,0,0,0-.257,6.342l.494-.055a21.934,21.934,0,0,1,.274-6.34Zm-.2,6.941c-.011-.082-.025-.191-.036-.273l-.487.049.042.271a15.1,15.1,0,0,0,2.115,5.7l.318.479.031.045.175-.02-.027-.045-.282-.482c-.266-.531-.607-1.247-.836-1.8a17.1,17.1,0,0,1-1.013-3.925Zm2.8,7.19-.489-.7-.157.015.546.691c.249.263.571.624.832.874-.221-.265-.53-.606-.732-.884" transform="translate(305.762 474.469)" fill="#fecf45" fill-rule="evenodd"/>
    <path id="path44" d="M22.53-177.434l.038-.014c-.094-.385-.219-.9-.307-1.285a16.851,16.851,0,0,1-.319-1.8v0a19.679,19.679,0,0,0,.324,3.2l.265-.1Zm1.731,5.782c-.355-1.129-.635-2.022-1.031-3.4-.345-1.2-.457-1.622-.662-2.4-.1.036-.194.077-.3.115.221,1.166.291,1.558.492,2.463.253,1.056.453,1.89.89,3.451C23.853-171.5,24.059-171.574,24.261-171.652Zm.38,1.177-.255-.786c-.218.082-.406.15-.627.23l.233.8c.855,2.792,1.383,4.239,1.938,5.714.264-.1.442-.166.629-.237C26.088-166.1,25.375-168.189,24.641-170.475Zm2.154,6.4-.089-.256q-.309.116-.619.228l.1.253c1.095,2.818,1.81,4.32,2.384,5.528l.24.492.227-.086-.193-.508c-.207-.555-.481-1.3-.683-1.853S27.528-161.979,26.8-164.074Zm2.657,7.226-.278-.706-.195.072c.1.2.242.477.346.681.153.282.355.66.51.942-.115-.3-.269-.693-.384-.989" transform="translate(305.762 474.469)" fill="#fecf45" fill-rule="evenodd"/>
    <path id="path46" d="M27.132-179.765l.028-.02c-.557-.153-1.3-.35-1.865-.474a15.162,15.162,0,0,0-3.353-.285h.038a14.879,14.879,0,0,1,4.95.911c.027-.018.111-.072.2-.133Zm6.53,3.352a24.648,24.648,0,0,0-3.455-2.141,27.773,27.773,0,0,0-3.046-1.23c-.084.056-.145.1-.23.153a29.391,29.391,0,0,1,2.913,1.316,25.561,25.561,0,0,1,3.349,2.214c.169-.111.305-.2.469-.311Zm1.085.861-.668-.542c-.176.117-.3.2-.483.316l.653.555a26.273,26.273,0,0,1,4.15,4.577c.2-.134.341-.225.483-.32A22.6,22.6,0,0,0,34.747-175.553Zm4.566,5.251-.143-.227c-.193.127-.325.213-.475.311l.15.223a20.976,20.976,0,0,1,2.576,5.353l.142.5.177-.117c-.033-.156-.076-.365-.11-.521-.155-.583-.374-1.358-.563-1.931A19.38,19.38,0,0,0,39.313-170.3Zm2.608,7.273-.1-.768-.147.1c.045.221.106.515.151.736.048.33.125.768.159,1.1-.017-.35-.023-.817-.061-1.164" transform="translate(305.762 474.469)" fill="#fecf45" fill-rule="evenodd"/>
    <path id="path48" d="M29.275-181.96c-.773.066-1.8.163-2.57.266a28.471,28.471,0,0,0-4.763,1.151l.074-.024a27.721,27.721,0,0,1,7.223-1.285ZM21.942-180.543Zm16.077-.333a24,24,0,0,0-4.575-.982,34.635,34.635,0,0,0-4.168-.1l-.036.108a38.166,38.166,0,0,1,4.145.165,24.371,24.371,0,0,1,4.559,1.033Zm1.429.537-.85-.335-.079.226.849.343a16.17,16.17,0,0,1,5.206,3.509l.078-.228a15.448,15.448,0,0,0-5.2-3.515Zm5.743,4.122c-.051-.061-.12-.14-.171-.2l-.077.222.172.2a11.436,11.436,0,0,1,2.573,5.252l.089.525.028-.084-.083-.54c-.142-.6-.35-1.4-.546-1.985a11.862,11.862,0,0,0-1.985-3.387Zm2.708,7.271-.038-.829-.024.069.046.806c-.012.381-.012.891-.046,1.271.021-.4.072-.921.062-1.317" transform="translate(305.762 474.469)" fill="#fecf45" fill-rule="evenodd"/>
    <path id="path50" d="M28.2-183l-.178-.019c-.647.173-1.508.415-2.145.624a22.16,22.16,0,0,0-3.936,1.853l.065-.037A22.267,22.267,0,0,1,28.2-183Zm4.769-.426c.413.032.843.071,1.208.113-.712-.065-1.654-.111-2.363-.124A27.558,27.558,0,0,0,28.2-183l-.189-.024a23.584,23.584,0,0,1,3.521-.444c.426,0,.967.02,1.435.042h0Z" transform="translate(305.762 474.469)" fill="#fecf45" fill-rule="evenodd"/>
    <path id="path52" d="M24.026-182.422a3.458,3.458,0,0,0-.818.43,4.777,4.777,0,0,0-1.267,1.45l.018-.026a4.718,4.718,0,0,1,2.319-1.925l-.252.071" transform="translate(305.762 474.469)" fill="#fecf45" fill-rule="evenodd"/>
    <path id="path54" d="M19.167-180.464l-.036.019a7.07,7.07,0,0,1,.879-.254,4.7,4.7,0,0,1,1.931.157l-.014,0a3.319,3.319,0,0,0-2.51-.047l-.251.131ZM21.942-180.542Z" transform="translate(305.762 474.469)" fill="#fecf45" fill-rule="evenodd"/>
    <path id="path56" d="M15.73-178.017c.614-.343,1.44-.789,2.071-1.1a22.406,22.406,0,0,1,4.141-1.427l-.347.081a20.236,20.236,0,0,0-5.758,2.326c-.032.034-.065.07-.108.119Zm-3.744,3.076c.151-.168.3-.331.441-.483.231-.235.5-.489.707-.7a15.681,15.681,0,0,1,2.372-1.8l-.091.1-.015.017a17.419,17.419,0,0,0-2.45,1.888c-.429.415-.973,1-1.375,1.44Z" transform="translate(305.762 474.469)" fill="#fecf45" fill-rule="evenodd"/>
    <path id="path58" d="M10.038-169.429a23.242,23.242,0,0,1,2.715-4.068,25.883,25.883,0,0,1,2.583-2.671l-.1-.059a26.084,26.084,0,0,0-2.625,2.635,21.989,21.989,0,0,0-2.756,4.034Zm-.561,1.189.474-1.019-.193-.119-.48,1.008a15.107,15.107,0,0,0-1.348,6.3l.192.129a15.759,15.759,0,0,1,1.355-6.3ZM8.134-161.5c0-.082-.006-.191-.009-.273l-.19-.119a11.516,11.516,0,0,0,1.924,6.072l.347.489.08.106.067.044-.078-.1-.333-.48c-.3-.523-.688-1.231-.94-1.781A11.516,11.516,0,0,1,8.134-161.5Zm2.959,7.2-.644-.756-.062-.04.667.77c.288.274.661.651.964.909-.279-.264-.669-.6-.925-.884" transform="translate(305.762 474.469)" fill="#fecf45" fill-rule="evenodd"/>
    <path id="path60" d="M37.118-182.725a2.909,2.909,0,0,1,1.064.5,1.385,1.385,0,0,1,.414,1.551l-.079.226a9.143,9.143,0,0,1-2.984,3.313,48.744,48.744,0,0,1-20.781,8.359l-.491.048a13.864,13.864,0,0,1-2.585,0l-.2-.028h0q.039-.1.079-.194h0l.033-.076.2.02a14.086,14.086,0,0,0,2.558-.045l.485-.055a39.424,39.424,0,0,0,8.31-2.129c6.076-2.207,13.3-6.1,14.8-9.42l.075-.221a1.354,1.354,0,0,0-.414-1.507,3.139,3.139,0,0,0-1.2-.527l.712.184ZM11.551-168.95l.032-.077h0Z" transform="translate(305.762 474.469)" fill="#fecf45" fill-rule="evenodd"/>
    <path id="path62" d="M11.5-168.834c-.206-.033-.481-.07-.685-.115l-.419-.118c-.135-.057-.319-.123-.448-.192l-.193-.119a1.277,1.277,0,0,1-.572-1.327,2.879,2.879,0,0,1,.393-.98l.214-.35c-.473.8-.836,1.716.059,2.476l.186.129c.129.064.3.16.433.213l.407.135c.2.042.467.106.67.138h0l-.044.108Z" transform="translate(305.762 474.469)" fill="#fecf45" fill-rule="evenodd"/>
    <path id="path64" d="M44.7-178.238a1.771,1.771,0,0,1,.314,1.821l-.077.222c-.706,1.494-1.685,2.572-4.035,4.436a63.125,63.125,0,0,1-26.59,10.616l-.487.049a17.031,17.031,0,0,1-3.6-.008l-.08-.011c0-.05-.008-.1-.011-.15l.009.15h0c0-.05-.008-.1-.011-.15m0-.008-.006-.115h0c0,.038,0,.077,0,.115Zm0-.115.08.009a16.988,16.988,0,0,0,3.574-.039l.494-.055a51.559,51.559,0,0,0,10.591-2.662c8.3-2.962,17.6-7.964,19.7-12.462l.078-.228a1.8,1.8,0,0,0-.3-1.78c.072.072.145.145.214.217l.111.117.03.032M10.131-161.386c0,.038,0,.077,0,.115" transform="translate(305.762 474.469)" fill="#fecf45" fill-rule="evenodd"/>
    <path id="path66" d="M10.141-161.2c-.264-.043-.618-.092-.879-.151-.2-.06-.469-.127-.663-.2l-.474-.222-.19-.119a1.636,1.636,0,0,1-.762-1.313c0-.107,0-.213,0-.316a1.74,1.74,0,0,0,.762,1.453l.192.129.472.24c.2.068.46.169.663.223.263.054.612.136.878.175v.027h0v0h0l0,.049Z" transform="translate(305.762 474.469)" fill="#fecf45" fill-rule="evenodd"/>
    <path id="path68" d="M47.993-170.716a5.3,5.3,0,0,1-.133.94l-.024.069c-.472,1.057-1.233,2.381-4.306,4.713a63.92,63.92,0,0,1-26.863,10.617l-.157.015a17.179,17.179,0,0,1-3.913,0l-.025-.032.024.032h0l-.025-.032m-.014-.019-.1-.132C12.493-154.5,12.525-154.452,12.559-154.408Zm-.1-.132,0,0,0,0,0,0,0,0,0,0h0l0,0,0,0a17.319,17.319,0,0,0,3.892-.04l.175-.02A51.459,51.459,0,0,0,27.2-157.245c10.259-3.593,19.106-9.171,20.579-12.974l.028-.084a2.163,2.163,0,0,0,.122-1.028l.067.617M12.46-154.541c.032.044.065.088.1.132" transform="translate(305.762 474.469)" fill="#fecf45" fill-rule="evenodd"/>
    <path id="path70" d="M12.547-154.422a6,6,0,0,1-1.677-.415l-.421-.219-.062-.04a4.805,4.805,0,0,1-.454-.4c-.042-.055-.085-.111-.127-.169a4.6,4.6,0,0,0,.48.442l.067.044.43.231a6.4,6.4,0,0,0,1.71.454l.055.073" transform="translate(305.762 474.469)" fill="#fecf45" fill-rule="evenodd"/>
    <path id="path72" d="M217.135-167.82l1.38-1.381,1.38,1.381v-1.172l-1.38-1.38-1.38,1.38Z" transform="translate(305.762 474.469)" fill="#fecf45" fill-rule="evenodd"/>
    <text id="text76" transform="translate(351.282 328.826)" font-size="8" font-family="ArialNarrow, Arial"><tspan x="0" y="0">GEODEZYJNA OBSŁUGA INWESTYCJI BUDOWLANYCH</tspan></text>
    <path id="path78" d="M218.315-137.942v-31.322h.4v31.322Z" transform="translate(305.762 474.469)" fill="#fecf45" fill-rule="evenodd"/>
    <path id="path80" d="M225.074-152.758H29.749v-.4H225.075Z" transform="translate(305.762 474.469)" fill="#fecf45" fill-rule="evenodd"/>
  </g>
</svg>
