<svg xmlns="http://www.w3.org/2000/svg" width="140" height="140" viewBox="0 0 140 140"><g transform="translate(-903 -244.486)"><rect width="140" height="140" transform="translate(903 244.486)" fill="#dfdfdf"/><g transform="translate(953 287.486)"><path d="M10.454,166.054a6.264,6.264,0,0,1-5.925-4.268l-.059-.192a6.106,6.106,0,0,1-.289-1.813V148.375L.123,161.922a3.8,3.8,0,0,0,2.663,4.609l25.868,6.928a3.837,3.837,0,0,0,.964.124,3.73,3.73,0,0,0,3.615-2.735l1.507-4.793Zm0,0" transform="translate(0 -136.778)" fill="#b8b8b8"/><path d="M152.666,71.184a3.346,3.346,0,1,0-3.346-3.346A3.349,3.349,0,0,0,152.666,71.184Zm0,0" transform="translate(-137.611 -59.473)" fill="#b8b8b8"/><path d="M114.6.492H89.5A4.188,4.188,0,0,0,85.32,4.675v18.4A4.188,4.188,0,0,0,89.5,27.259H114.6a4.188,4.188,0,0,0,4.182-4.182V4.675A4.188,4.188,0,0,0,114.6.492ZM89.5,3.838H114.6a.837.837,0,0,1,.837.837V16.551l-5.285-6.166A3,3,0,0,0,107.9,9.355a2.924,2.924,0,0,0-2.235,1.056l-6.213,7.458-2.024-2.019a2.936,2.936,0,0,0-4.149,0l-4.617,4.616V4.675A.837.837,0,0,1,89.5,3.838Zm0,0" transform="translate(-78.629 -0.492)" fill="#b8b8b8"/></g><text transform="translate(973 338.486)" fill="#b8b8b8" font-size="10" font-family="Poppins-Medium, Poppins" font-weight="500"><tspan x="-27.545" y="0">Ładowanie</tspan></text></g></svg>