<svg xmlns="http://www.w3.org/2000/svg" width="18.366" height="22.282" viewBox="0 0 18.366 22.282">
  <g id="adress-book" transform="translate(-44.998)">
    <path id="Path_58" data-name="Path 58" d="M88.094,448.3a1.418,1.418,0,0,0,1.418,1.418h15.072v-2.837H89.512A1.418,1.418,0,0,0,88.094,448.3Z" transform="translate(-41.221 -427.441)" fill="#111"/>
    <path id="Path_59" data-name="Path 59" d="M45,59.481h1.875v1.305H45Z" transform="translate(0 -56.893)" fill="#111"/>
    <path id="Path_60" data-name="Path 60" d="M45,133.962h1.875v1.305H45Z" transform="translate(0 -128.133)" fill="#111"/>
    <path id="Path_61" data-name="Path 61" d="M45,208.444h1.875v1.305H45Z" transform="translate(0 -199.374)" fill="#111"/>
    <path id="Path_62" data-name="Path 62" d="M45,282.924h1.875v1.305H45Z" transform="translate(0 -270.613)" fill="#111"/>
    <path id="Path_63" data-name="Path 63" d="M45,357.406h1.875v1.305H45Z" transform="translate(0 -341.854)" fill="#111"/>
    <path id="Path_64" data-name="Path 64" d="M245.557,121.779a1.457,1.457,0,1,0-1.457-1.457A1.459,1.459,0,0,0,245.557,121.779Z" transform="translate(-190.439 -113.693)" fill="#111"/>
    <path id="Path_65" data-name="Path 65" d="M226.047,215.837h-4.457a.218.218,0,0,0-.218.218v3.758h4.892v-3.758A.218.218,0,0,0,226.047,215.837Z" transform="translate(-168.7 -206.445)" fill="#111"/>
    <path id="Path_66" data-name="Path 66" d="M89.482,0a1.388,1.388,0,0,0-1.388,1.388v1.2h1.875V3.894H88.094V5.829h1.875V7.134H88.094V9.07h1.875v1.305H88.094v1.935h1.875v1.305H88.094v1.935h1.875v1.305H88.094v1.682a2.707,2.707,0,0,1,1.418-.4h15.072V0Zm10.609,14.672h-7.5V9.609A1.525,1.525,0,0,1,94,8.091a2.762,2.762,0,1,1,4.685,0,1.525,1.525,0,0,1,1.409,1.518Z" transform="translate(-41.221)" fill="#111"/>
  </g>
</svg>
