<svg xmlns="http://www.w3.org/2000/svg" width="97.479" height="66.894" viewBox="0 0 97.479 66.894">
  <g id="drone" transform="translate(0 -79.09)">
    <path id="Path_3" data-name="Path 3" d="M229.467,226.868H219.442a17.234,17.234,0,0,1-1.426,2.522,1.054,1.054,0,0,0,.568,1.6,21.17,21.17,0,0,0,11.74,0,1.054,1.054,0,0,0,.568-1.6A17.221,17.221,0,0,1,229.467,226.868Z" transform="translate(-175.717 -119.205)" fill="#222"/>
    <path id="Path_28" data-name="Path 28" d="M19.347,0C30.032,0,38.694,3.626,38.694,8.1s-8.662,8.1-19.347,8.1S0,12.573,0,8.1,8.662,0,19.347,0Z" transform="translate(29.39 84.248)" fill="#222"/>
    <path id="Path_4" data-name="Path 4" d="M190.694,147.658c0,4.475-8.663,8.1-19.347,8.1S152,152.131,152,147.658" transform="translate(-122.61 -55.31)" fill="#222"/>
    <path id="Path_5" data-name="Path 5" d="M91.958,115.771a5.378,5.378,0,0,1-5.381,5.381c-2.967,0-24.286-2.409-24.286-5.381s21.319-5.378,24.286-5.378A5.377,5.377,0,0,1,91.958,115.771Z" transform="translate(-50.247 -25.25)" fill="#222"/>
    <path id="Path_6" data-name="Path 6" d="M187.9,110.392a5.378,5.378,0,0,1,5.381,5.378" transform="translate(-151.566 -25.25)" fill="#222"/>
    <g id="Group_10" data-name="Group 10" transform="translate(11.213 85.918)">
      <path id="Path_7" data-name="Path 7" d="M91.952,138.206c0,2.971,3.462,9.294.49,9.294s-30.159-6.321-30.159-9.294" transform="translate(-61.453 -133.603)" fill="#222"/>
      <path id="Path_8" data-name="Path 8" d="M64.181,120.269a3.1,3.1,0,0,1-3.1,3.1h0a3.092,3.092,0,0,1-3.093-3.1V117.5a3.091,3.091,0,0,1,3.093-3.1h0a3.1,3.1,0,0,1,3.1,3.1Z" transform="translate(-57.99 -114.401)" fill="#222"/>
    </g>
    <path id="Path_9" data-name="Path 9" d="M64.181,104.455a3.1,3.1,0,0,1-3.1,3.1h0a3.091,3.091,0,0,1-3.093-3.1v-2.772a3.094,3.094,0,0,1,3.093-3.1h0a3.1,3.1,0,0,1,3.1,3.1Z" transform="translate(-46.777 -15.725)" fill="#222"/>
    <path id="Path_10" data-name="Path 10" d="M58.478,104.738a3.085,3.085,0,0,0,6,0,3.085,3.085,0,0,0-6,0Z" transform="translate(-47.171 -18.781)" fill="#222"/>
    <ellipse id="Ellipse_7" data-name="Ellipse 7" cx="14.304" cy="2.263" rx="14.304" ry="2.263" transform="translate(0 81.228)" fill="#222"/>
    <ellipse id="Ellipse_8" data-name="Ellipse 8" cx="7.947" cy="2.263" rx="7.947" ry="2.263" transform="translate(6.359 81.228)" fill="#222"/>
    <path id="Path_11" data-name="Path 11" d="M28.907,100.189a.394.394,0,0,1-.4.4H.875a.394.394,0,0,1-.394-.4h0a.4.4,0,0,1,.394-.4H28.509a.4.4,0,0,1,.4.4Z" transform="translate(-0.388 -16.698)" fill="#222"/>
    <path id="Path_12" data-name="Path 12" d="M61.315,80.744c0,.908,1.217,1.648.3,1.648H54.711c-.911,0,.3-.74.3-1.648h0a1.651,1.651,0,0,1,1.651-1.654h2.994a1.652,1.652,0,0,1,1.654,1.654Z" transform="translate(-43.859)" fill="#222"/>
    <path id="Path_13" data-name="Path 13" d="M288.4,115.771a5.378,5.378,0,0,0,5.379,5.381c2.968,0,24.288-2.409,24.288-5.381s-21.319-5.378-24.288-5.378A5.377,5.377,0,0,0,288.4,115.771Z" transform="translate(-232.635 -25.25)" fill="#222"/>
    <path id="Path_14" data-name="Path 14" d="M293.785,110.392a5.377,5.377,0,0,0-5.379,5.378" transform="translate(-232.642 -25.25)" fill="#222"/>
    <g id="Group_11" data-name="Group 11" transform="translate(54.068 85.918)">
      <path id="Path_15" data-name="Path 15" d="M281.327,138.206c0,2.971-3.462,9.294-.49,9.294S311,141.179,311,138.206" transform="translate(-279.633 -133.603)" fill="#222"/>
      <path id="Path_16" data-name="Path 16" d="M414.113,120.269a3.1,3.1,0,0,0,3.1,3.1h0a3.094,3.094,0,0,0,3.095-3.1V117.5a3.094,3.094,0,0,0-3.095-3.1h0a3.1,3.1,0,0,0-3.1,3.1Z" transform="translate(-388.111 -114.401)" fill="#222"/>
    </g>
    <path id="Path_17" data-name="Path 17" d="M414.113,104.455a3.1,3.1,0,0,0,3.1,3.1h0a3.094,3.094,0,0,0,3.095-3.1v-2.772a3.1,3.1,0,0,0-3.095-3.1h0a3.1,3.1,0,0,0-3.1,3.1Z" transform="translate(-334.043 -15.725)" fill="#222"/>
    <path id="Path_18" data-name="Path 18" d="M420.611,104.738a3.086,3.086,0,0,1-6,0,3.086,3.086,0,0,1,6,0Z" transform="translate(-334.443 -18.781)" fill="#222"/>
    <ellipse id="Ellipse_9" data-name="Ellipse 9" cx="14.306" cy="2.263" rx="14.306" ry="2.263" transform="translate(68.867 81.228)" fill="#222"/>
    <ellipse id="Ellipse_10" data-name="Ellipse 10" cx="7.947" cy="2.263" rx="7.947" ry="2.263" transform="translate(75.226 81.228)" fill="#222"/>
    <path id="Path_19" data-name="Path 19" d="M356.628,100.189a.394.394,0,0,0,.4.4h27.634a.394.394,0,0,0,.394-.4h0a.4.4,0,0,0-.394-.4H357.026a.4.4,0,0,0-.4.4Z" transform="translate(-287.673 -16.698)" fill="#222"/>
    <path id="Path_20" data-name="Path 20" d="M411.165,80.744c0,.908-1.217,1.648-.3,1.648h6.905c.911,0-.3-.74-.3-1.648h0a1.651,1.651,0,0,0-1.651-1.654h-2.994a1.653,1.653,0,0,0-1.654,1.654Z" transform="translate(-331.146)" fill="#222"/>
    <path id="Path_21" data-name="Path 21" d="M216.674,151.714h-2.952a1.53,1.53,0,0,0-1.164.541c-.413.487-2.3,1.211-5.04,1.211s-4.624-.724-5.037-1.211a1.527,1.527,0,0,0-1.165-.541h-2.95a1.522,1.522,0,0,0-1.523,1.523v3.121a1.539,1.539,0,0,0,.413,1.045,4.82,4.82,0,0,0,2.166,1.118c1.49.471,1.651.664,1.651,1.217,0,1.24-1.176,3.858-2.865,6.363a1.526,1.526,0,0,0,.824,2.309,30.571,30.571,0,0,0,16.974,0,1.524,1.524,0,0,0,.823-2.309c-1.686-2.505-2.863-5.122-2.863-6.363,0-.553.161-.746,1.648-1.217a4.816,4.816,0,0,0,2.167-1.118,1.532,1.532,0,0,0,.413-1.045v-3.121A1.52,1.52,0,0,0,216.674,151.714Z" transform="translate(-158.783 -58.582)" fill="#222"/>
    <g id="Group_12" data-name="Group 12" transform="translate(45.627 86.594)">
      <path id="Path_22" data-name="Path 22" d="M242.195,118.185a.286.286,0,0,1-.286.286h-5.646a.286.286,0,0,1-.286-.286h0a.286.286,0,0,1,.286-.286h5.646a.286.286,0,0,1,.286.286Z" transform="translate(-235.976 -117.899)" fill="#222"/>
      <path id="Path_23" data-name="Path 23" d="M242.195,127.046a.286.286,0,0,1-.286.286h-5.646a.286.286,0,0,1-.286-.286h0a.286.286,0,0,1,.286-.286h5.646a.286.286,0,0,1,.286.286Z" transform="translate(-235.976 -125.047)" fill="#222"/>
      <path id="Path_24" data-name="Path 24" d="M242.195,135.908a.286.286,0,0,1-.286.286h-5.646a.286.286,0,0,1-.286-.286h0a.286.286,0,0,1,.286-.286h5.646a.286.286,0,0,1,.286.286Z" transform="translate(-235.976 -132.195)" fill="#222"/>
    </g>
    <path id="Path_25" data-name="Path 25" d="M83.317,336.6a2.327,2.327,0,0,1,3.29,0,40.755,40.755,0,0,0,57.577,0,2.325,2.325,0,0,1,3.287,3.29,45.415,45.415,0,0,1-64.153,0A2.328,2.328,0,0,1,83.317,336.6Z" transform="translate(-66.658 -207.167)" fill="#222"/>
    <path id="Path_26" data-name="Path 26" d="M128.742,297.281a1.7,1.7,0,0,1,2.406,0,29.788,29.788,0,0,0,42.074,0,1.7,1.7,0,1,1,2.4,2.4,33.187,33.187,0,0,1-46.882,0A1.7,1.7,0,0,1,128.742,297.281Z" transform="translate(-103.449 -175.602)" fill="#222"/>
    <path id="Path_27" data-name="Path 27" d="M168.407,262.961a1.148,1.148,0,0,1,1.63,0,20.2,20.2,0,0,0,28.542,0,1.154,1.154,0,0,1,1.631,1.633,22.515,22.515,0,0,1-31.8,0A1.152,1.152,0,0,1,168.407,262.961Z" transform="translate(-135.572 -148.045)" fill="#222"/>
  </g>
</svg>
