<svg xmlns="http://www.w3.org/2000/svg" width="38.427" height="76.867" viewBox="0 0 38.427 76.867"><g transform="translate(-507.286 -1296.5)"><g transform="translate(507.286 1296.5)"><path d="M24.373,21.687a7.687,7.687,0,1,0-7.687,7.687A7.687,7.687,0,0,0,24.373,21.687Zm-12.811,0a5.124,5.124,0,1,1,1.5,3.624A5.124,5.124,0,0,1,11.562,21.687Z" transform="translate(2.529 3.936)" fill="#222"/><path d="M.47,75.785a2.562,2.562,0,0,0,2.092,1.081H5.278a2.572,2.572,0,0,0,2.428-1.721L15.373,53V67.9a2.562,2.562,0,0,0,2.562,2.562H20.5A2.562,2.562,0,0,0,23.06,67.9V53l7.669,22.147a2.572,2.572,0,0,0,2.424,1.715h2.719a2.562,2.562,0,0,0,2.415-3.4l-10.358-29.9h1.537a3.843,3.843,0,0,0,3.843-3.843V15.373a3.843,3.843,0,0,0-2.562-3.608V7.687A7.694,7.694,0,0,0,23.06,0H15.373A7.694,7.694,0,0,0,7.686,7.687v4.079a3.843,3.843,0,0,0-2.562,3.608V39.714a3.843,3.843,0,0,0,3.843,3.843H10.5L.147,73.454A2.562,2.562,0,0,0,.47,75.785ZM17.935,67.9V43.558H20.5V67.9ZM35.871,74.3H33.149L23.06,45.175V43.558h2.164ZM15.373,2.562H23.06a5.124,5.124,0,0,1,5.124,5.124V11.53H25.622V7.687A2.562,2.562,0,0,0,23.06,5.124H15.373a2.562,2.562,0,0,0-2.562,2.562V11.53H10.249V7.687A5.124,5.124,0,0,1,15.373,2.562ZM23.06,11.53H15.373V7.687H23.06ZM7.686,39.714V38.433h6.406a1.281,1.281,0,0,0,0-2.562H7.686v-20.5a1.281,1.281,0,0,1,1.281-1.281h20.5a1.281,1.281,0,0,1,1.281,1.281v20.5H24.341a1.281,1.281,0,0,0,0,2.562h6.406v1.281A1.281,1.281,0,0,1,29.465,41H8.968A1.281,1.281,0,0,1,7.686,39.714Zm5.524,3.843h2.163v1.617L5.275,74.3H2.562Z" transform="translate(-0.001)" fill="#222"/></g><path d="M519.095,1340.729,508.876,1371.8h3.613l10.529-27.56,1.342,21.057a34.724,34.724,0,0,1,4.645,0c.413.206-.206-22.3,0-21.986s9.5,27.25,9.5,27.25l3.819,2.684,2.064-2.168L533.649,1339.7s4.335-.929,4.851-1.135.619-9.806.619-9.806v-18.167l-3.1-3.406-.866-7.461-8.429-1.4,3.787,5.925v4.593h-8l-.305-4.593,7.085-2.138-2.077-3.787-10.322,2.054c-.1.929-.587,8.154-.587,8.464s-3.3,5.884-3.3,6.5,1.239,20.644,1.239,20.644l1.445,3.716,5.884-.619s4.335-8.567,3.716-8.67-5.161-5.058-5.161-5.471v-5.987l5.161-3.613,6.813,2.787s.826,5.264.826,5.884-2.271,5.058-2.684,4.748-4.955,0-4.955,0Z" transform="translate(0 -0.5)" fill="#222"/></g></svg>