<svg xmlns="http://www.w3.org/2000/svg" width="35.508" height="74.927" viewBox="0 0 35.508 74.927">
  <path id="geo" d="M519.095,1340.729,508.876,1371.8h3.613l10.529-27.56,1.342,21.057a34.724,34.724,0,0,1,4.645,0c.413.206-.206-22.3,0-21.986s9.5,27.25,9.5,27.25l3.819,2.684,2.064-2.168L533.649,1339.7s4.335-.929,4.851-1.135.619-9.806.619-9.806v-18.167l-3.1-3.406-.866-7.461-8.429-1.4,3.787,5.925v4.593h-8l-.305-4.593,7.085-2.138-2.077-3.787-10.322,2.054c-.1.929-.587,8.154-.587,8.464s-3.3,5.884-3.3,6.5,1.239,20.644,1.239,20.644l1.445,3.716,5.884-.619s4.335-8.567,3.716-8.67-5.161-5.058-5.161-5.471v-5.987l5.161-3.613,6.813,2.787s.826,5.264.826,5.884-2.271,5.058-2.684,4.748-4.955,0-4.955,0Z" transform="translate(-508.876 -1298.316)" fill="#222"/>
</svg>
