<svg id="Capa_1" enable-background="new 0 0 512 512" height="512" viewBox="0 0 512 512" width="512" xmlns="http://www.w3.org/2000/svg"><g><path d="m497 0h-60c-8.291 0-15 6.709-15 15v15h-121v-15c0-8.291-6.709-15-15-15h-60c-8.291 0-15 6.709-15 15v15h-121v-15c0-8.291-6.709-15-15-15h-60c-8.291 0-15 6.709-15 15v60c0 8.291 6.709 15 15 15h15v121h-15c-8.291 0-15 6.709-15 15v60c0 8.291 6.709 15 15 15h15v121h-15c-8.291 0-15 6.709-15 15v60c0 8.291 6.709 15 15 15h60c8.291 0 15-6.709 15-15v-15h121v15c0 8.291 6.709 15 15 15h60c8.291 0 15-6.709 15-15v-15h121v15c0 8.291 6.709 15 15 15h60c8.291 0 15-6.709 15-15v-60c0-8.291-6.709-15-15-15h-15v-121h15c8.291 0 15-6.709 15-15v-60c0-8.291-6.709-15-15-15h-15v-121h15c8.291 0 15-6.709 15-15v-60c0-8.291-6.709-15-15-15zm-45 211h-15c-8.291 0-15 6.709-15 15v60c0 8.291 6.709 15 15 15h15v121h-15c-8.291 0-15 6.709-15 15v15h-121v-15c0-8.291-6.709-15-15-15h-60c-8.291 0-15 6.709-15 15v15h-121v-15c0-8.291-6.709-15-15-15h-15v-121h15c8.291 0 15-6.709 15-15v-60c0-8.291-6.709-15-15-15h-15v-121h15c8.291 0 15-6.709 15-15v-15h121v15c0 8.291 6.709 15 15 15h60c8.291 0 15-6.709 15-15v-15h121v15c0 8.291 6.709 15 15 15h15z"/><path d="m196 241c-41.367 0-76 33.647-76 75s34.633 76 76 76 75-34.647 75-76-33.633-75-75-75z"/><path d="m377 241h-61c-8.291 0-15 6.709-15 15v121c0 8.291 6.709 15 15 15h61c8.291 0 15-6.709 15-15v-121c0-8.291-6.709-15-15-15z"/><path d="m371.727 90.952-242 91c-6.797 2.549-10.781 9.595-9.492 16.729s7.499 12.319 14.765 12.319h242c8.291 0 15-6.709 15-15v-91c0-4.922-2.402-9.521-6.445-12.334-4.073-2.798-9.17-3.457-13.828-1.714z"/></g></svg>