<svg id="Capa_1" enable-background="new 0 0 512 512" height="512" viewBox="0 0 512 512" width="512" xmlns="http://www.w3.org/2000/svg"><g><g><g><path d="m386 145h-260c-8.284 0-15 6.716-15 15v12c0 5.851 3.402 11.167 8.714 13.619 45.216 20.869 90.751 31.304 136.286 31.304s91.069-10.435 136.286-31.304c5.312-2.452 8.714-7.769 8.714-13.619v-12c0-8.285-6.716-15-15-15z"/></g><g><path d="m228.156 512h12.844v-125.87c-30.895-3.567-58.518-18.009-78.947-39.388z"/><path d="m271 512h12.844l66.103-165.258c-20.43 21.379-48.053 35.822-78.947 39.388z"/><path d="m129.084 345.099c-53.001 30.3-88.084 87.336-88.084 151.901 0 3.979 1.581 7.793 4.394 10.606s6.627 4.394 10.606 4.394h139.844z"/><path d="m382.916 345.099-66.76 166.901h139.844c8.284 0 15-6.716 15-15 0-64.565-35.083-121.601-88.084-151.901z"/></g></g><path d="m256 246.922c-33.346 0-66.818-5.147-100-15.328v25.406c0 55.228 44.771 100 100 100 55.228 0 100-44.771 100-100v-25.406c-33.182 10.182-66.654 15.328-100 15.328z"/><path d="m377.377 115c-4.072-16.573-11.533-32.144-22.179-45.992-10.586-13.77-24.047-25.192-39.198-33.516v9.508c0 8.284-6.716 15-15 15s-15-6.716-15-15v-30c0-8.284-6.716-15-15-15h-30c-8.284 0-15 6.716-15 15v30c0 8.284-6.716 15-15 15s-15-6.716-15-15v-9.508c-15.151 8.324-28.612 19.746-39.198 33.516-10.646 13.847-18.107 29.419-22.179 45.992z"/></g></svg>